<?xml version="1.0" encoding="UTF-8" standalone="no"?>
<svg
   xmlns:dc="http://purl.org/dc/elements/1.1/"
   xmlns:cc="http://creativecommons.org/ns#"
   xmlns:rdf="http://www.w3.org/1999/02/22-rdf-syntax-ns#"
   xmlns:svg="http://www.w3.org/2000/svg"
   xmlns="http://www.w3.org/2000/svg"
   xmlns:xlink="http://www.w3.org/1999/xlink"
   xmlns:sodipodi="http://sodipodi.sourceforge.net/DTD/sodipodi-0.dtd"
   xmlns:inkscape="http://www.inkscape.org/namespaces/inkscape"
   width="512"
   height="256"
   viewBox="0 0 512 256"
   id="svg2"
   version="1.1"
   inkscape:version="0.91 r13725"
   sodipodi:docname="techd_logo_horizonal2018.svg"
   inkscape:export-filename="/Users/su/Downloads/techd_logo5_horizonal.png"
   inkscape:export-xdpi="90"
   inkscape:export-ydpi="90">
  <sodipodi:namedview
     pagecolor="#ffffff"
     bordercolor="#666666"
     borderopacity="1"
     objecttolerance="10"
     gridtolerance="10"
     guidetolerance="10"
     inkscape:pageopacity="0"
     inkscape:pageshadow="2"
     inkscape:window-width="1229"
     inkscape:window-height="705"
     id="namedview4326"
     showgrid="false"
     inkscape:zoom="1.2109375"
     inkscape:cx="242.34849"
     inkscape:cy="108.89588"
     inkscape:window-x="25"
     inkscape:window-y="20"
     inkscape:window-maximized="0"
     inkscape:current-layer="text4156" />
  <defs
     id="defs4">
    <linearGradient
       inkscape:collect="always"
       id="linearGradient4588">
      <stop
         style="stop-color:#0095d9;stop-opacity:1;"
         offset="0"
         id="stop4568" />
      <stop
         style="stop-color:#00a3af;stop-opacity:0.94117647"
         offset="1"
         id="stop4570" />
    </linearGradient>
    <linearGradient
       inkscape:collect="always"
       xlink:href="#linearGradient4588"
       id="linearGradient4572"
       x1="352.01913"
       y1="908.74231"
       x2="403.55286"
       y2="908.74231"
       gradientUnits="userSpaceOnUse"
       gradientTransform="matrix(1.2563932,0,0,1.2563932,-94.655314,-221.4233)" />
    <linearGradient
       inkscape:collect="always"
       xlink:href="#linearGradient4588"
       id="linearGradient4596"
       x1="394.77856"
       y1="922.07123"
       x2="441.18222"
       y2="922.07123"
       gradientUnits="userSpaceOnUse" />
  </defs>
  <metadata
     id="metadata7">
    <rdf:RDF>
      <cc:Work
         rdf:about="">
        <dc:format>image/svg+xml</dc:format>
        <dc:type
           rdf:resource="http://purl.org/dc/dcmitype/StillImage" />
        <dc:title></dc:title>
      </cc:Work>
    </rdf:RDF>
  </metadata>
  <g
     transform="translate(0,-796.36216)"
     id="layer1">
    <text
       id="text4136"
       y="398.07648"
       x="262.85715"
       style="font-style:normal;font-weight:normal;font-size:40px;line-height:125%;font-family:sans-serif;letter-spacing:0px;word-spacing:0px;fill:#000000;fill-opacity:1;stroke:none;stroke-width:1px;stroke-linecap:butt;stroke-linejoin:miter;stroke-opacity:1"
       xml:space="preserve"
       sodipodi:linespacing="125%"><tspan
         y="398.07648"
         x="262.85715"
         id="tspan4138" /></text>
    <flowRoot
       style="font-style:normal;font-weight:normal;font-size:40px;line-height:125%;font-family:sans-serif;letter-spacing:0px;word-spacing:0px;fill:#000000;fill-opacity:1;stroke:none;stroke-width:1px;stroke-linecap:butt;stroke-linejoin:miter;stroke-opacity:1"
       id="flowRoot4140"
       xml:space="preserve"><flowRegion
         id="flowRegion4142"><rect
           y="429.50507"
           x="245.71428"
           height="237.14285"
           width="331.42856"
           id="rect4144" /></flowRegion><flowPara
         id="flowPara4146" /></flowRoot>    <flowRoot
       style="font-style:normal;font-variant:normal;font-weight:normal;font-stretch:normal;font-size:40px;line-height:125%;font-family:Taurus;-inkscape-font-specification:'Taurus, Normal';text-align:start;letter-spacing:0px;word-spacing:0px;writing-mode:lr-tb;text-anchor:start;fill:#000000;fill-opacity:1;stroke:none;stroke-width:1px;stroke-linecap:butt;stroke-linejoin:miter;stroke-opacity:1"
       id="flowRoot4148"
       xml:space="preserve"><flowRegion
         id="flowRegion4150"><rect
           y="492.36221"
           x="274.28571"
           height="62.857143"
           width="57.142857"
           id="rect4152" /></flowRegion><flowPara
         id="flowPara4154">taotaurua</flowPara></flowRoot>    <g
       style="font-style:normal;font-variant:normal;font-weight:normal;font-stretch:normal;font-size:97.92396545px;line-height:125%;font-family:Taurus;-inkscape-font-specification:'Taurus, Normal';text-align:start;letter-spacing:0px;word-spacing:0px;writing-mode:lr-tb;text-anchor:start;fill:#6c848d;fill-opacity:1;stroke:none;stroke-width:1px;stroke-linecap:butt;stroke-linejoin:miter;stroke-opacity:1"
       id="text4156"
       transform="translate(-131.96893,-3.5036)">
      <path
         d="m 211.57862,888.19491 4.11202,0 0,21.2534 18.12156,0 0,3.89685 -18.12156,0 0,29.97948 q 0,3.06011 1.79303,5.45081 1.79303,2.3668 4.63797,3.7056 2.86885,1.31489 5.90505,1.31489 6.26365,0 11.26023,-4.99658 l 3.13183,3.53825 q -6.88524,5.57035 -14.39206,5.57035 -6.88524,0 -11.66666,-3.92076 -4.78141,-3.92076 -4.78141,-10.4713 l 0,-55.32099 z"
         style="font-style:normal;font-variant:normal;font-weight:normal;font-stretch:normal;font-size:97.92340088px;line-height:125%;font-family:TaurusLight;-inkscape-font-specification:'TaurusLight, Normal';text-align:start;writing-mode:lr-tb;text-anchor:start;fill:#7d7d7d;fill-opacity:1"
         id="path6674"
         inkscape:connector-curvature="0" />
      <path
         d="m 289.8504,930.79733 q -0.90847,-6.0724 -4.06421,-10.37567 -3.13182,-4.30328 -7.36338,-6.4071 -4.20764,-2.12773 -8.36747,-2.12773 -5.11612,0 -9.39549,2.46243 -4.27936,2.46243 -7.00477,6.78961 -2.72541,4.32718 -3.3709,9.65846 l 39.56622,0 z m -39.56622,3.89685 q 0.88456,5.403 3.89685,9.75409 3.0123,4.35109 7.24385,6.86133 4.25546,2.48634 8.63046,2.48634 3.75341,0 7.1004,-1.38661 3.34699,-1.38661 6.0963,-4.15983 2.74932,-2.79713 4.73361,-6.88524 l 3.92076,1.67349 q -2.86885,6.71789 -8.46311,10.806 -5.59426,4.06421 -13.38796,4.06421 -4.63798,0 -8.96516,-1.79303 -4.32718,-1.79303 -7.69808,-5.11612 -3.3709,-3.34699 -5.30737,-7.98496 -1.91257,-4.63798 -1.91257,-10.16051 0,-5.92896 2.7015,-11.71447 2.7015,-5.80942 8.1045,-9.58674 5.403,-3.77732 13.07718,-3.77732 5.04439,0 9.41939,1.88866 4.3989,1.88866 7.65026,5.30737 3.27527,3.39481 5.0444,7.96106 1.79303,4.56625 1.79303,9.8019 l 0,1.96038 -43.67824,0 z"
         style="font-style:normal;font-variant:normal;font-weight:normal;font-stretch:normal;font-size:97.92340088px;line-height:125%;font-family:TaurusLight;-inkscape-font-specification:'TaurusLight, Normal';text-align:start;writing-mode:lr-tb;text-anchor:start;fill:#7d7d7d;fill-opacity:1"
         id="path6676"
         inkscape:connector-curvature="0" />
      <path
         d="m 299.53277,932.85334 q 0,-5.09221 1.72131,-9.65846 1.72131,-4.56625 4.87704,-8.00887 3.17964,-3.46653 7.60245,-5.42691 4.44672,-1.98429 9.68237,-1.98429 4.54234,0 8.51092,1.53005 3.96858,1.50615 6.81352,3.99249 2.86885,2.46243 4.47062,5.35518 l -3.44262,2.62978 q -2.3668,-3.94467 -6.83742,-6.62226 -4.44672,-2.67759 -9.51502,-2.67759 -5.33128,0 -9.89753,2.82103 -4.56625,2.82104 -7.21994,7.65027 -2.65369,4.82923 -2.65369,10.39958 0,4.61406 2.62978,9.53892 2.62978,4.92486 7.19603,8.17622 4.59016,3.22746 9.94535,3.22746 5.23565,0 9.51502,-2.74931 4.27936,-2.74932 6.83742,-6.64617 l 3.44262,2.84494 q -3.53825,5.16393 -8.29576,7.91324 -4.7575,2.74932 -11.4993,2.74932 -7.14822,0 -12.59903,-3.58606 -5.45082,-3.60997 -8.36748,-9.39549 -2.91666,-5.78551 -2.91666,-12.07307 z"
         style="font-style:normal;font-variant:normal;font-weight:normal;font-stretch:normal;font-size:97.92340088px;line-height:125%;font-family:TaurusLight;-inkscape-font-specification:'TaurusLight, Normal';text-align:start;writing-mode:lr-tb;text-anchor:start;fill:#7d7d7d;fill-opacity:1"
         id="path6678"
         inkscape:connector-curvature="0" />
      <path
         d="m 387.7499,956.73651 -4.11202,0 0,-30.26636 q 0,-7.05259 -4.11201,-10.806 -4.08811,-3.77732 -9.49111,-3.77732 -5.59426,0 -10.16051,2.27117 -4.56626,2.24727 -6.09631,6.45491 l 0,36.1236 -4.11202,0 0,-70.50198 4.11202,0 0,28.09082 q 1.48224,-2.60587 6.71789,-4.56625 5.23565,-1.98429 10.01707,-1.98429 4.80532,0 8.67827,1.98429 3.87294,1.98429 6.21584,6.38319 2.34289,4.3989 2.34289,11.11679 l 0,29.47743 z"
         style="font-style:normal;font-variant:normal;font-weight:normal;font-stretch:normal;font-size:97.92340088px;line-height:125%;font-family:TaurusLight;-inkscape-font-specification:'TaurusLight, Normal';text-align:start;writing-mode:lr-tb;text-anchor:start;fill:#7d7d7d;fill-opacity:1"
         id="path6680"
         inkscape:connector-curvature="0" />
      <path
         d="m 437.07019,886.23453 0,41.5266 0,5.09221 q 0,5.7377 -2.39071,10.54302 -2.3668,4.80532 -6.71789,7.60245 -4.35108,2.79713 -9.96925,2.79713 -5.54644,0 -9.92144,-2.79713 -4.37499,-2.79713 -6.78961,-7.60245 -2.39071,-4.80532 -2.39071,-10.54302 0,-5.88114 2.48634,-10.71037 2.51024,-4.82923 6.86133,-7.53073 4.375,-2.72541 9.75409,-2.72541 4.30328,0 7.91325,1.72131 3.63387,1.6974 6.0963,4.63797 2.48634,2.94057 3.7056,6.57445 l -0.59768,-8.03278 q -2.53415,-4.61407 -7.07649,-6.81352 -4.51844,-2.19945 -10.04098,-2.19945 -7.55464,0 -12.81419,3.56216 -5.25956,3.56215 -7.84153,9.4672 -2.55805,5.88114 -2.55805,12.71857 0,7.62635 3.3948,13.1967 3.41871,5.54645 8.7739,8.36748 5.37909,2.82104 11.04507,2.82104 5.76161,0 10.18442,-2.19945 4.42281,-2.19945 7.31556,-5.80942 2.89276,-3.63388 4.27937,-7.7698 1.41052,-4.13593 1.41052,-8.10451 l 0,-47.79025 -4.11202,0 z"
         style="font-style:normal;font-variant:normal;font-weight:normal;font-stretch:normal;font-size:97.92340088px;line-height:125%;font-family:TaurusLight;-inkscape-font-specification:'TaurusLight, Normal';text-align:start;writing-mode:lr-tb;text-anchor:start;fill:url(#linearGradient4596);fill-opacity:1.0"
         id="path6682"
         inkscape:connector-curvature="0" />
    </g>
    <flowRoot
       style="font-style:normal;font-variant:normal;font-weight:normal;font-stretch:normal;font-size:40px;line-height:125%;font-family:Taurus;-inkscape-font-specification:'Taurus, Normal';text-align:start;letter-spacing:0px;word-spacing:0px;writing-mode:lr-tb;text-anchor:start;fill:#000000;fill-opacity:1;stroke:none;stroke-width:1px;stroke-linecap:butt;stroke-linejoin:miter;stroke-opacity:1"
       id="flowRoot4160"
       xml:space="preserve"><flowRegion
         id="flowRegion4162"><rect
           y="123.79078"
           x="268.57144"
           height="42.857143"
           width="77.14286"
           id="rect4164" /></flowRegion><flowPara
         id="flowPara4166" /></flowRoot>    <flowRoot
       style="font-style:normal;font-variant:normal;font-weight:normal;font-stretch:normal;font-size:40px;line-height:125%;font-family:Taurus;-inkscape-font-specification:'Taurus, Normal';text-align:start;letter-spacing:0px;word-spacing:0px;writing-mode:lr-tb;text-anchor:start;fill:#000000;fill-opacity:1;stroke:none;stroke-width:1px;stroke-linecap:butt;stroke-linejoin:miter;stroke-opacity:1"
       id="flowRoot4168"
       xml:space="preserve"><flowRegion
         id="flowRegion4170"><rect
           y="420.93362"
           x="102.85714"
           height="54.285713"
           width="388.57144"
           id="rect4172" /></flowRegion><flowPara
         id="flowPara4174" /></flowRoot>    <text
       id="text4176"
       y="432.36221"
       x="248.57143"
       style="font-style:normal;font-variant:normal;font-weight:normal;font-stretch:normal;font-size:40px;line-height:125%;font-family:Taurus;-inkscape-font-specification:'Taurus, Normal';text-align:start;letter-spacing:0px;word-spacing:0px;writing-mode:lr-tb;text-anchor:start;fill:#000000;fill-opacity:1;stroke:none;stroke-width:1px;stroke-linecap:butt;stroke-linejoin:miter;stroke-opacity:1"
       xml:space="preserve"
       sodipodi:linespacing="125%"><tspan
         y="432.36221"
         x="248.57143"
         id="tspan4178" /></text>
    <circle
       style="fill:none;fill-opacity:1;fill-rule:evenodd;stroke:#ffffff;stroke-width:3.4357636;stroke-linecap:butt;stroke-linejoin:miter;stroke-miterlimit:4;stroke-dasharray:none;stroke-opacity:1"
       id="circle4491"
       cx="136.74008"
       cy="168.8233"
       r="82.948578" />
    <circle
       style="fill:none;fill-opacity:1;fill-rule:evenodd;stroke:#ffffff;stroke-width:2.13223338;stroke-linecap:butt;stroke-linejoin:miter;stroke-miterlimit:4;stroke-dasharray:none;stroke-opacity:1"
       id="circle4493"
       cx="188.67883"
       cy="334.28476"
       r="51.477848" />
    <flowRoot
       style="font-style:normal;font-variant:normal;font-weight:normal;font-stretch:normal;font-size:40px;line-height:125%;font-family:Taurus;-inkscape-font-specification:'Taurus, Normal';text-align:start;letter-spacing:0px;word-spacing:0px;writing-mode:lr-tb;text-anchor:start;fill:#000000;fill-opacity:1;stroke:none;stroke-width:1px;stroke-linecap:butt;stroke-linejoin:miter;stroke-opacity:1"
       id="flowRoot4849"
       xml:space="preserve"><flowRegion
         id="flowRegion4851"><rect
           y="263.755"
           x="226.46356"
           height="171.17163"
           width="98.879646"
           id="rect4853" /></flowRegion><flowPara
         id="flowPara4855" /></flowRoot>    <path
       style="fill:none;fill-rule:evenodd;stroke:#ffffff;stroke-width:5;stroke-linecap:butt;stroke-linejoin:miter;stroke-miterlimit:4;stroke-dasharray:none;stroke-opacity:1"
       d="m 605.50897,565.70645 128.48996,-1.60613"
       id="path4857"
       inkscape:connector-curvature="0" />
    <flowRoot
       style="font-style:normal;font-variant:normal;font-weight:normal;font-stretch:normal;font-size:40px;line-height:125%;font-family:Taurus;-inkscape-font-specification:'Taurus, Normal';text-align:start;letter-spacing:0px;word-spacing:0px;writing-mode:lr-tb;text-anchor:start;fill:#000000;fill-opacity:1;stroke:none;stroke-width:1px;stroke-linecap:butt;stroke-linejoin:miter;stroke-opacity:1"
       id="flowRoot4988"
       xml:space="preserve"><flowRegion
         id="flowRegion4990"><rect
           y="407.12723"
           x="-15.467961"
           height="298.31067"
           width="274.00388"
           id="rect4992" /></flowRegion><flowPara
         id="flowPara4994" /></flowRoot>    <text
       id="text5000"
       y="670.08258"
       x="1347.9222"
       style="font-style:normal;font-variant:normal;font-weight:normal;font-stretch:normal;font-size:40px;line-height:125%;font-family:Taurus;-inkscape-font-specification:'Taurus, Normal';text-align:start;letter-spacing:0px;word-spacing:0px;writing-mode:lr-tb;text-anchor:start;fill:#000000;fill-opacity:1;stroke:none;stroke-width:1px;stroke-linecap:butt;stroke-linejoin:miter;stroke-opacity:1"
       xml:space="preserve"
       sodipodi:linespacing="125%"><tspan
         y="670.08258"
         x="1347.9222"
         id="tspan5002" /></text>
    <path
       sodipodi:type="star"
       style="opacity:1;fill:url(#linearGradient4572);fill-opacity:1;fill-rule:nonzero;stroke:none;stroke-width:3.20000005;stroke-miterlimit:4;stroke-dasharray:none;stroke-opacity:1"
       id="path4466"
       sodipodi:sides="5"
       sodipodi:cx="381.76215"
       sodipodi:cy="920.73419"
       sodipodi:r1="34.182728"
       sodipodi:r2="17.091364"
       sodipodi:arg1="0.67941381"
       sodipodi:arg2="1.3077323"
       inkscape:flatsided="true"
       inkscape:rounded="0.16"
       inkscape:randomized="0"
       d="m 408.3543,942.21247 c -4.03988,5.00175 -32.79644,12.74604 -38.80178,10.44951 -6.00534,-2.29652 -22.25686,-27.25252 -21.92849,-33.6736 0.32837,-6.42109 19.04094,-29.58903 25.24923,-31.26095 6.20828,-1.67193 34.02481,8.9655 37.53337,14.35328 3.50856,5.38777 1.98754,35.13001 -2.05233,40.13176 z"
       inkscape:transform-center-x="2.9238286"
       inkscape:transform-center-y="-3.6461578"
       transform="matrix(0.98232074,-0.18720569,0.18720569,0.98232074,-172.49789,91.142824)" />
    <path
       inkscape:connector-curvature="0"
       style="opacity:1;fill:#ffffff;fill-opacity:1;stroke:none;stroke-width:5;stroke-miterlimit:4;stroke-dasharray:none;stroke-opacity:1"
       id="path4490"
       d="m 374.10139,933.85253 c -2.26678,-2.52007 -27.5505,-2.56089 -30.02088,-4.86585 -1.81853,-1.69672 21.14457,-0.0409 22.35758,-2.29237 1.64785,-3.05856 -5.70174,-28.02719 -4.31051,-31.2166 1.02408,-2.34781 6.21519,20.85659 8.63353,21.32017 3.28523,0.62977 24.02662,-14.76091 27.35684,-14.4271 2.45145,0.24572 -17.30337,12.93105 -17.02178,15.46903 0.3825,3.44775 20.55103,18.90441 21.21798,22.30013 0.49142,2.49959 -16.90928,-12.86478 -19.15357,-11.75976 -3.0488,1.5011 -11.32542,26.44447 -14.24339,28.20933 -2.14803,1.29916 6.85284,-20.88193 5.1842,-22.73698 z" />
  </g>
</svg>
