<?xml version="1.0" standalone="no"?>
<!DOCTYPE svg PUBLIC "-//W3C//DTD SVG 20010904//EN"
 "http://www.w3.org/TR/2001/REC-SVG-20010904/DTD/svg10.dtd">
<svg version="1.0" xmlns="http://www.w3.org/2000/svg"
 width="700.000000pt" height="700.000000pt" viewBox="0 0 700.000000 700.000000"
 preserveAspectRatio="xMidYMid meet">
<metadata>
Created by potrace 1.11, written by Peter Selinger 2001-2013
</metadata>
<g transform="translate(0.000000,700.000000) scale(0.100000,-0.100000)"
fill="#000000" stroke="none">
<path d="M2495 6789 c-209 -11 -348 -51 -450 -128 -91 -70 -247 -232 -335
-351 -37 -50 -108 -144 -118 -155 -4 -5 -46 -66 -93 -135 -514 -750 -1049
-1825 -1225 -2460 -88 -315 -86 -441 10 -644 115 -244 426 -677 745 -1036 36
-41 88 -99 115 -130 223 -249 590 -619 841 -845 48 -44 93 -84 99 -90 11 -10
114 -96 149 -125 10 -8 31 -25 45 -38 221 -192 568 -412 718 -455 91 -27 257
-15 464 33 243 56 741 229 998 346 29 13 80 36 115 50 34 14 150 67 257 116
352 164 732 364 995 525 11 7 27 16 35 20 58 28 381 244 469 313 18 14 58 45
89 69 31 25 100 88 153 140 126 126 163 197 194 376 3 17 8 37 10 45 6 19 12
80 21 205 3 55 7 109 8 120 1 11 -1 30 -6 43 -4 12 -4 22 0 22 9 0 9 81 -1 97
-4 6 -3 14 2 17 11 7 9 105 -1 122 -4 6 -5 14 -1 18 8 8 11 56 3 56 -3 0 -5
51 -6 113 -1 106 -5 174 -20 376 -4 47 -12 89 -18 93 -8 5 -7 8 2 8 7 0 11 4
8 8 -3 5 -8 37 -11 73 -3 35 -10 98 -15 139 -6 41 -12 97 -15 124 -3 27 -7 63
-10 80 -2 17 -7 47 -9 66 -3 19 -8 58 -12 85 -4 28 -8 57 -9 65 -15 117 -83
498 -111 619 -8 36 -17 80 -20 96 -13 80 -39 175 -46 175 -5 0 -7 4 -3 10 3 5
-6 51 -19 102 -14 51 -28 104 -32 118 -3 14 -17 61 -31 105 -14 44 -26 87 -28
95 -4 18 -28 83 -46 125 -7 17 -13 32 -14 35 -19 77 -100 238 -158 315 -60 79
-191 176 -212 157 -5 -4 -5 -2 -2 4 6 11 -199 114 -227 114 -6 0 -16 4 -22 9
-11 10 -248 96 -324 116 -8 3 -46 14 -85 26 -130 39 -247 72 -305 84 -8 2 -15
4 -15 5 0 1 -9 3 -20 5 -11 2 -45 10 -75 19 -30 8 -67 17 -82 21 -16 3 -40 7
-55 10 -16 3 -44 10 -63 15 -19 5 -50 12 -69 15 -19 3 -37 7 -40 9 -3 2 -22 7
-41 10 -48 8 -82 14 -165 32 -38 8 -86 17 -105 20 -19 2 -46 7 -60 11 -14 3
-34 7 -45 8 -11 2 -47 8 -80 13 -33 6 -76 13 -95 16 -19 3 -44 7 -55 10 -38 7
-124 20 -210 31 -47 6 -73 9 -155 20 -19 3 -62 8 -95 10 -33 3 -71 8 -85 10
-193 30 -645 47 -895 34z"/>
</g>
</svg>
